<svg width="100" height="100" viewBox="0 0 100 100" fill="none" xmlns="http://www.w3.org/2000/svg">
<path fill-rule="evenodd" clip-rule="evenodd" d="M98 51.1364C98 47.591 97.6818 44.1819 97.0909 40.9092H50V60.2501H76.9091C75.75 66.5001 72.2273 71.7955 66.9318 75.341V87.8865H83.0909C92.5455 79.1819 98 66.3637 98 51.1364Z" fill="#4285F4"/>
<path fill-rule="evenodd" clip-rule="evenodd" d="M49.9987 99.9998C63.4987 99.9998 74.8169 95.5225 83.0896 87.8861L66.9305 75.3407C62.4533 78.3407 56.726 80.1134 49.9987 80.1134C36.976 80.1134 25.9533 71.3179 22.0214 59.4998H5.31689V72.4543C13.5442 88.7952 30.4533 99.9998 49.9987 99.9998Z" fill="#34A853"/>
<path fill-rule="evenodd" clip-rule="evenodd" d="M22.0227 59.4997C21.0227 56.4997 20.4545 53.2952 20.4545 49.9997C20.4545 46.7043 21.0227 43.4997 22.0227 40.4997V27.5452H5.31818C1.93182 34.2952 0 41.9315 0 49.9997C0 58.0679 1.93182 65.7043 5.31818 72.4543L22.0227 59.4997Z" fill="#FBBC05"/>
<path fill-rule="evenodd" clip-rule="evenodd" d="M49.9987 19.8864C57.3396 19.8864 63.9305 22.4091 69.1123 27.3636L83.4533 13.0227C74.7942 4.95455 63.476 0 49.9987 0C30.4533 0 13.5442 11.2045 5.31689 27.5455L22.0214 40.5C25.9533 28.6818 36.976 19.8864 49.9987 19.8864Z" fill="#EA4335"/>
</svg>
